<svg xmlns="http://www.w3.org/2000/svg" version="1.1" xmlns:xlink="http://www.w3.org/1999/xlink" xmlns:svgjs="http://svgjs.dev/svgjs" width="1000" height="1000" viewBox="0 0 1000 1000"><rect width="1000" height="1000" fill="#000000"></rect><g transform="matrix(0.7,0,0,0.7,149.57575757575756,282.1265587044535)"><svg viewBox="0 0 396 247" data-background-color="#ffffff" preserveAspectRatio="xMidYMid meet" height="623" width="1000" xmlns="http://www.w3.org/2000/svg" xmlns:xlink="http://www.w3.org/1999/xlink"><defs></defs><g id="tight-bounds" transform="matrix(1,0,0,1,0.2400000000000091,-0.09999999999999432)"><svg viewBox="0 0 395.52 247.2" height="247.2" width="395.52"><g><svg></svg></g><g><svg viewBox="0 0 395.52 247.2" height="247.2" width="395.52"><g transform="matrix(1,0,0,1,75.54432,89.01023473106477)"><svg viewBox="0 0 244.43135999999998 69.17953053787046" height="69.17953053787046" width="244.43135999999998"><g><svg viewBox="0 0 244.43135999999998 69.17953053787046" height="69.17953053787046" width="244.43135999999998"><g><svg viewBox="0 0 244.43135999999998 69.17953053787046" height="69.17953053787046" width="244.43135999999998"><g><svg viewBox="0 0 244.43135999999998 69.17953053787046" height="69.17953053787046" width="244.43135999999998"><g><svg viewBox="0 0 244.43135999999998 69.17953053787046" height="69.17953053787046" width="244.43135999999998"><g><svg viewBox="0 0 244.43135999999998 69.17953053787046" height="69.17953053787046" width="244.43135999999998"><g transform="matrix(1,0,0,1,0,0)"><svg width="244.43135999999998" viewBox="2.25 -37.209999084472656 133.42999267578125 37.77000045776367" height="69.17953053787046" data-palette-color="#233565"><path d="M17.29-21.56L17.29-21.56Q13.01-21.56 9.35-18.97L9.35-18.97 9.35-2.59 12.45-2.03 12.45 0 2.25 0 2.25-2.03 5.4-2.59 5.4-20.36 2.25-20.92 2.25-22.95 9.35-24.73 9.35-21.56Q13.94-24.73 17.99-24.73L17.99-24.73Q23.07-24.73 24.58-21.51L24.58-21.51Q27.08-23.24 29.44-23.99 31.81-24.73 33.47-24.73L33.47-24.73Q37.18-24.73 39-22.88 40.82-21.02 40.82-17.19L40.82-17.19 40.82-2.59 43.9-2.03 43.9 0 33.74 0 33.74-2.03 36.84-2.59 36.84-17.19Q36.84-19.38 35.55-20.56L35.55-20.56Q34.45-21.56 32.81-21.56L32.81-21.56Q28.61-21.56 25.12-19.04L25.12-19.04Q25.24-17.82 25.24-17.19L25.24-17.19 25.24-2.59 28.05-2.03 28.05 0 18.38 0 18.38-2.03 21.24-2.59 21.24-17.19Q21.24-19.38 20.02-20.56L20.02-20.56Q18.97-21.56 17.29-21.56ZM72.87-3.32L73.39-1.03Q70.73 0.56 69.14 0.56L69.14 0.56Q67.62 0.56 66.89-0.05L66.89-0.05Q65.57-1.07 65.57-2.47L65.57-2.47 65.57-2.81Q63.47-1.03 61.23-0.23 58.98 0.56 57.3 0.56L57.3 0.56Q53.88 0.56 51.94-1.31 50-3.17 50-6.96L50-6.96 50-20.36 47.09-20.85 47.09-23 53.95-24.73 53.95-6.96Q53.95-4.76 55.47-3.56L55.47-3.56Q56.71-2.59 58.4-2.59L58.4-2.59Q61.15-2.59 63.57-4.05L63.57-4.05Q64.67-4.69 65.57-5.54L65.57-5.54 65.57-20.36 61.89-20.85 61.89-22.88 69.53-24.73 69.53-4.13Q69.53-2.81 70.85-2.81L70.85-2.81Q71.77-2.81 72.87-3.32L72.87-3.32ZM76.75-2.25L91.13-21.85 80.85-21.85 78.68-19.26 77.07-19.26 78.39-24.15 96.28-24.15 96.28-21.9 81.9-2.29 93.21-2.29 95.41-4.88 97.02-4.88 95.7 0 76.75 0 76.75-2.25ZM108.34-24.73L108.34-2.59 111.47-2.03 111.47 0 101.21 0 101.21-2.03 104.39-2.59 104.39-20.36 101.21-20.92 101.21-22.95 108.34-24.73ZM104.25-32.19Q103.85-32.62 103.61-33.15 103.36-33.69 103.36-34.22 103.36-34.74 103.61-35.27 103.85-35.79 104.24-36.23L104.24-36.23Q105.14-37.21 105.89-37.21 106.63-37.21 107.16-36.94 107.68-36.67 108.1-36.23L108.1-36.23Q109-35.23 109-34.46 109-33.69 108.74-33.15 108.49-32.62 108.1-32.18L108.1-32.18Q107.17-31.23 106.4-31.23 105.63-31.23 105.14-31.49 104.66-31.76 104.25-32.19ZM134.29-5.59L134.29-5.59 135.68-4Q131.8-0.51 128.16 0.37L128.16 0.37Q127.36 0.56 126.58 0.56L126.58 0.56Q121.23 0.56 117.93-2.83L117.93-2.83Q114.74-6.13 114.74-11.5L114.74-11.5Q114.74-16.87 117.93-20.61L117.93-20.61Q121.5-24.73 127.5-24.73L127.5-24.73Q131.51-24.73 134.58-23.41L134.58-23.41 134-18.51 132.46-18.51Q132.46-20.97 129.51-21.63L129.51-21.63Q128.58-21.85 126.92-21.85 125.26-21.85 123.66-21.08 122.06-20.31 121.03-19.04L121.03-19.04Q119.01-16.53 119.01-12.89L119.01-12.89Q119.01-8.42 121.21-5.74L121.21-5.74Q123.57-2.86 127.3-2.86 131.02-2.86 134.29-5.59Z" opacity="1" transform="matrix(1,0,0,1,0,0)" fill="#ffffff" class="undefined-text-0" data-fill-palette-color="primary" id="text-0"></path></svg></g></svg></g></svg></g></svg></g></svg></g></svg></g></svg></g><g><path d="M244.431 174.521A122.216 122.216 0 1 1 244.431 72.679L238.193 72.679A115.977 115.977 0 1 0 238.193 174.521L244.431 174.521" fill="#233565" stroke="transparent" data-fill-palette-color="tertiary"></path></g></svg></g></svg><rect width="395.52" height="247.2" fill="none" stroke="none" visibility="hidden"></rect></g></svg></g></svg>